{"title":"Mystic River-720p MP4 AAC x264 BRRip 2003-CC","uid":7422137,"size":2602201891,"categoryP":"video","categoryS":"hd___movies","magnet":"?xt=urn:btih:fbf21937101dc8dea55f86faa4bed74fa90d370d&amp;dn=Mystic+River-720p+MP4+AAC+x264+BRRip+2003-CC&amp;tr=udp%3A%2F%2Ftracker.openbittorrent.com%3A80&amp;tr=udp%3A%2F%2Fopen.demonii.com%3A1337&amp;tr=udp%3A%2F%2Ftracker.coppersurfer.tk%3A6969&amp;tr=udp%3A%2F%2Fexodus.desync.com%3A6969","seeders":0,"leechers":1,"uploader":"Caveman44","files":-1,"time":1341694380,"description":" &lt;a href=&quot;http://www.imdb.com/title/tt0327056/&quot; rel=&quot;nofollow&quot; target=&quot;_NEW&quot;&gt;http://www.imdb.com/title/tt0327056/&lt;/a&gt;\n\nSource: Mystic.River.2003.720p.BluRay.x264-MELiTE\n\nSubs: Arabic, Croatian, Danish, Dutch, English, Farsi-Persian, French, Greek, Indonesian, Italian, Portuguese, Romanian, Servian, Slovenian, Spanish, Turkish and Vietnamese.\n\nSample and Screens included.\n\nGeneral\nComplete name                    : Mystic River-720p MP4 AAC x264 BRRip 2003-CC.mp4\nFormat                           : MPEG-4\nFormat profile                   : Base Media\nCodec ID                         : isom\nFile size                        : 2.39 GiB\nDuration                         : 2h 17mn\nOverall bit rate                 : 2 483 Kbps\nEncoded date                     : UTC 2012-07-04 14:39:18\n\nVideo\nID                               : 1\nFormat                           : AVC\nFormat/Info                      : Advanced Video Codec\nFormat profile                   : &lt;a class=&quot;__cf_email__&quot; href=&quot;/cdn-cgi/l/email-protection&quot; data-cfemail=&quot;fab2939d92bab6c9d4cb&quot;&gt;[email&amp;#160;protected]&lt;/a&gt;&lt;script cf-hash='f9e31' type=&quot;text/javascript&quot;&gt;\n/* &lt;![CDATA[ */!function(){try{var t=&quot;currentScript&quot;in document?document.currentScript:function(){for(var t=document.getElementsByTagName(&quot;script&quot;),e=t.length;e--;)if(t[e].getAttribute(&quot;cf-hash&quot;))return t[e]}();if(t&amp;&amp;t.previousSibling){var e,r,n,i,c=t.previousSibling,a=c.getAttribute(&quot;data-cfemail&quot;);if(a){for(e=&quot;&quot;,r=parseInt(a.substr(0,2),16),n=2;a.length-n;n+=2)i=parseInt(a.substr(n,2),16)^r,e+=String.fromCharCode(i);e=document.createTextNode(e),c.parentNode.replaceChild(e,c)}}}catch(u){}}();/* ]]&gt; */&lt;/script&gt;\nFormat settings, CABAC           : Yes\nFormat settings, ReFrames        : 5 frames\nCodec ID                         : avc1\nCodec ID/Info                    : Advanced Video Coding\nDuration                         : 2h 17mn\nBit rate mode                    : Variable\nBit rate                         : 2 105 Kbps\nMaximum bit rate                 : 11.5 Mbps\nWidth                            : 1 280 pixels\nHeight                           : 528 pixels\nDisplay aspect ratio             : 2.35:1\nFrame rate mode                  : Variable\nFrame rate                       : 23.976 fps\nMinimum frame rate               : 15.873 fps\nMaximum frame rate               : 24.390 fps\nResolution                       : 24 bits\nColorimetry                      : 4:2:0\nScan type                        : Progressive\nBits/(Pixel*Frame)               : 0.130\nStream size                      : 2.02 GiB (84%)\nWriting library                  : x264 core 112\n\nAudio\nID                               : 2\nFormat                           : AAC\nFormat/Info                      : Advanced Audio Codec\nFormat version                   : Version 4\nFormat profile                   : LC\nFormat settings, SBR             : No\nCodec ID                         : 40\nDuration                         : 2h 17mn\nBit rate mode                    : Variable\nBit rate                         : 384 Kbps\nMaximum bit rate                 : 771 Kbps\nChannel(s)                       : 6 channels\nChannel positions                : Front: L C R, Rear: L R, LFE\nSampling rate                    : 48.0 KHz\nResolution                       : 16 bits\nStream size                      : 377 MiB (15%)\nLanguage                         : English\n\nEnjoy...\n\nRequested by cmptrluvr's.","torrent":{"xt":"urn:btih:fbf21937101dc8dea55f86faa4bed74fa90d370d","amp;dn":"Mystic+River-720p+MP4+AAC+x264+BRRip+2003-CC","amp;tr":["udp%3A%2F%2Ftracker.openbittorrent.com%3A80","udp%3A%2F%2Fopen.demonii.com%3A1337","udp%3A%2F%2Ftracker.coppersurfer.tk%3A6969","udp%3A%2F%2Fexodus.desync.com%3A6969"],"infoHash":"fbf21937101dc8dea55f86faa4bed74fa90d370d","infoHashBuffer":{"type":"Buffer","data":[251,242,25,55,16,29,200,222,165,95,134,250,164,190,215,79,169,13,55,13]},"announce":[],"urlList":[]}}